<svg xmlns="http://www.w3.org/2000/svg" viewBox="0 0 380 720" width="320" height="606" font-family="-apple-system, system-ui, sans-serif">
  <rect width="380" height="720" rx="32" fill="#14110F"/>
  <defs>
    <linearGradient id="camFeed2" x1="0" y1="0" x2="0" y2="1">
      <stop offset="0" stop-color="#6b5436"/>
      <stop offset="0.5" stop-color="#3a2c1c"/>
      <stop offset="1" stop-color="#1a140d"/>
    </linearGradient>
  </defs>
  <rect x="8" y="8" width="364" height="704" rx="26" fill="url(#camFeed2)"/>

  <g fill="rgba(237,230,218,0.4)" transform="translate(80,150)">
    <rect x="115" y="170" width="120" height="120"/>
    <path d="M115 170 L175 70 L235 170 Z"/>
    <rect x="170" y="120" width="10" height="10"/>
    <path d="M168 120 L175 80 L182 120 Z"/>
  </g>

  <rect x="0" y="0" width="380" height="720" fill="rgba(20,17,15,0.4)"/>

  <text x="22" y="38" font-size="11" fill="rgba(237,230,218,0.7)">9:41</text>

  <g transform="translate(60,65)" opacity="0.7">
    <rect width="260" height="36" rx="18" fill="rgba(20,17,15,0.7)" stroke="rgba(237,230,218,0.2)"/>
    <rect x="4" y="4" width="80" height="28" rx="14" fill="#E5B948"/>
    <text x="44" y="22" font-size="11" font-weight="500" fill="#1A1614" text-anchor="middle">Birth</text>
    <text x="128" y="22" font-size="11" fill="rgba(237,230,218,0.7)" text-anchor="middle">Crown</text>
    <text x="216" y="22" font-size="11" fill="rgba(237,230,218,0.7)" text-anchor="middle">Modern</text>
  </g>

  <g transform="translate(180,290)">
    <circle r="20" fill="rgba(229,185,72,0.3)"/>
    <circle r="10" fill="#E5B948" stroke="#FAFAF7" stroke-width="2.5"/>
  </g>

  <g transform="translate(0,380)">
    <rect x="0" y="0" width="380" height="340" rx="24" fill="#14110F" stroke="rgba(237,230,218,0.12)"/>
    <rect x="172" y="10" width="36" height="4" rx="2" fill="rgba(237,230,218,0.18)"/>

    <text x="22" y="48" font-size="10" fill="#E5B948" letter-spacing="1.5">BIRTH · 1386</text>
    <text x="22" y="80" font-size="22" font-weight="500" fill="#EDE6DA" font-family="Georgia, serif">The first stone.</text>

    <g transform="translate(22,98)">
      <rect width="170" height="100" rx="10" fill="rgba(229,185,72,0.08)" stroke="rgba(229,185,72,0.3)"/>
      <text x="85" y="44" font-size="11" fill="#E5B948" text-anchor="middle">Historical engraving</text>
      <text x="85" y="60" font-size="9" fill="rgba(229,185,72,0.6)" text-anchor="middle">apse rising, 1390s</text>
      <text x="85" y="84" font-size="8" fill="rgba(237,230,218,0.4)" text-anchor="middle" font-style="italic">Wikimedia Commons · PD</text>
    </g>

    <text x="202" y="115" font-size="11" fill="rgba(237,230,218,0.85)" font-family="Georgia, serif">
      <tspan x="202" dy="0">Right here, eight</tspan>
      <tspan x="202" dy="14">centuries ago, an</tspan>
      <tspan x="202" dy="14">archbishop placed</tspan>
      <tspan x="202" dy="14">the cornerstone of a</tspan>
      <tspan x="202" dy="14">building that would</tspan>
      <tspan x="202" dy="14">outlive the city he</tspan>
      <tspan x="202" dy="14">knew.</tspan>
    </text>

    <g transform="translate(22,222)">
      <rect width="106" height="42" rx="12" fill="rgba(229,185,72,0.15)" stroke="rgba(229,185,72,0.4)"/>
      <text x="53" y="26" font-size="11" font-weight="500" fill="#E5B948" text-anchor="middle">▶ Hear it</text>
    </g>

    <g transform="translate(134,222)">
      <rect width="106" height="42" rx="12" fill="rgba(229,185,72,0.08)" stroke="rgba(237,230,218,0.18)"/>
      <text x="53" y="26" font-size="11" fill="#EDE6DA" text-anchor="middle">Tell me more</text>
    </g>

    <g transform="translate(246,222)">
      <rect width="106" height="42" rx="12" fill="#E5B948"/>
      <text x="53" y="26" font-size="11" font-weight="500" fill="#1A1614" text-anchor="middle">○ Photo +100</text>
    </g>

    <line x1="22" y1="285" x2="358" y2="285" stroke="rgba(237,230,218,0.08)"/>
    <text x="22" y="310" font-size="10" fill="#8A847C" letter-spacing="1.5">CULTURAL CONTEXT</text>
    <text x="22" y="328" font-size="11" fill="rgba(237,230,218,0.7)">Bells, guilds, sumptuary laws · → Ask Luca</text>
  </g>
</svg>
