<svg xmlns="http://www.w3.org/2000/svg" viewBox="0 0 380 720" font-family="-apple-system, system-ui, sans-serif">
  <rect width="380" height="720" rx="32" fill="#14110F"/>
  <rect x="8" y="8" width="364" height="704" rx="26" fill="#14110F" stroke="rgba(237,230,218,0.06)"/>

  <text x="22" y="38" font-size="11" fill="#8A847C">9:41</text>

  <g transform="translate(22,60)">
    <rect width="64" height="3" rx="1.5" fill="#E5B948"/>
    <rect x="70" width="64" height="3" rx="1.5" fill="rgba(237,230,218,0.18)"/>
    <rect x="140" width="64" height="3" rx="1.5" fill="rgba(237,230,218,0.18)"/>
  </g>

  <rect x="22" y="80" width="336" height="408" rx="22" fill="#1F1B19"/>
  <g opacity="0.05">
    <circle cx="50" cy="120" r="0.8" fill="#E5B948"/>
    <circle cx="80" cy="140" r="0.8" fill="#E5B948"/>
    <circle cx="120" cy="115" r="0.8" fill="#E5B948"/>
    <circle cx="160" cy="135" r="0.8" fill="#E5B948"/>
    <circle cx="200" cy="118" r="0.8" fill="#E5B948"/>
    <circle cx="240" cy="138" r="0.8" fill="#E5B948"/>
    <circle cx="280" cy="120" r="0.8" fill="#E5B948"/>
    <circle cx="320" cy="140" r="0.8" fill="#E5B948"/>
    <circle cx="60" cy="200" r="0.8" fill="#E5B948"/>
    <circle cx="100" cy="220" r="0.8" fill="#E5B948"/>
    <circle cx="140" cy="200" r="0.8" fill="#E5B948"/>
    <circle cx="180" cy="220" r="0.8" fill="#E5B948"/>
    <circle cx="220" cy="200" r="0.8" fill="#E5B948"/>
    <circle cx="260" cy="220" r="0.8" fill="#E5B948"/>
    <circle cx="300" cy="200" r="0.8" fill="#E5B948"/>
    <circle cx="340" cy="220" r="0.8" fill="#E5B948"/>
  </g>

  <rect x="42" y="110" width="160" height="20" rx="10" fill="rgba(229,185,72,0.18)" stroke="rgba(229,185,72,0.5)" stroke-width="0.5"/>
  <text x="56" y="124" font-size="9" fill="#E5B948" letter-spacing="1.5">✦ THREE PERIODS · ONE STORY</text>

  <text x="42" y="170" font-size="11" fill="#E5B948" letter-spacing="1.5">CHAPTER 1 OF 3 · BIRTH</text>
  <text x="42" y="220" font-size="32" font-weight="500" fill="#EDE6DA" font-family="Georgia, serif">The cathedral</text>
  <text x="42" y="252" font-size="32" font-weight="500" fill="#E5B948" font-family="Georgia, serif">begins.</text>
  <text x="42" y="290" font-size="13" fill="rgba(237,230,218,0.75)" font-family="Georgia, serif"><tspan x="42" dy="0">1386 – 1500s. A city dares to begin a cathedral that</tspan><tspan x="42" dy="16">will outlive every hand that touched it.</tspan></text>

  <text x="42" y="350" font-size="10" fill="#8A847C">7 scenes · ~3 min · voice + interactive</text>

  <rect x="42" y="430" width="296" height="44" rx="14" fill="#E5B948"/>
  <text x="190" y="457" font-size="14" font-weight="500" fill="#1A1614" text-anchor="middle">Begin chapter →</text>

  <text x="42" y="495" font-size="11" fill="#8A847C" text-anchor="start">⋮ Skip chapter</text>

  <text x="22" y="540" font-size="11" fill="#8A847C" letter-spacing="1.5">NEXT IN THIS CHAPTER</text>
  <g transform="translate(22,555)">
    <rect width="336" height="64" rx="14" fill="#1F1B19"/>
    <rect x="14" y="14" width="36" height="36" rx="10" fill="rgba(229,185,72,0.15)"/>
    <text x="32" y="38" font-size="14" fill="#E5B948" text-anchor="middle" font-family="Georgia, serif">"</text>
    <text x="62" y="34" font-size="13" fill="#EDE6DA">Pull quote · The first stone</text>
    <text x="62" y="50" font-size="11" fill="#8A847C">Luca · 15 s narration</text>
  </g>

  <g transform="translate(22,625)">
    <rect width="336" height="64" rx="14" fill="rgba(31,27,25,0.4)" stroke="rgba(237,230,218,0.05)"/>
    <rect x="14" y="14" width="36" height="36" rx="10" fill="rgba(237,230,218,0.05)"/>
    <text x="62" y="34" font-size="13" fill="rgba(237,230,218,0.55)">Narrative · 5 August 1386</text>
    <text x="62" y="50" font-size="11" fill="#8A847C">25 s · image · "Ask Luca more"</text>
  </g>
</svg>
