<svg xmlns="http://www.w3.org/2000/svg" viewBox="0 0 380 720" font-family="-apple-system, system-ui, sans-serif">
  <rect width="380" height="720" rx="32" fill="#14110F"/>
  <rect x="8" y="8" width="364" height="704" rx="26" fill="#14110F" stroke="rgba(237,230,218,0.06)"/>

  <text x="22" y="38" font-size="11" fill="#8A847C">9:41</text>

  <g transform="translate(22,60)">
    <rect width="50" height="3" rx="1.5" fill="#E5B948"/>
    <rect x="56" width="50" height="3" rx="1.5" fill="#E5B948"/>
    <rect x="112" width="50" height="3" rx="1.5" fill="#E5B948"/>
    <rect x="168" width="50" height="3" rx="1.5" fill="rgba(229,185,72,0.7)"/>
    <rect x="224" width="50" height="3" rx="1.5" fill="rgba(237,230,218,0.18)"/>
    <rect x="280" width="50" height="3" rx="1.5" fill="rgba(237,230,218,0.18)"/>
  </g>

  <text x="22" y="92" font-size="10" fill="#8A847C" letter-spacing="1.5">CHAPTER 1 / 3 · BIRTH · 1386–1500s</text>

  <text x="42" y="130" font-size="11" fill="#E5B948" letter-spacing="1.5">5 AUGUST 1386</text>
  <text x="42" y="170" font-size="26" font-weight="500" fill="#EDE6DA" font-family="Georgia, serif">The first</text>
  <text x="42" y="200" font-size="26" font-weight="500" fill="#EDE6DA" font-family="Georgia, serif">stone.</text>

  <g transform="translate(42,225)">
    <rect width="296" height="120" rx="14" fill="#25201D"/>
    <g transform="translate(20,15)">
      <rect width="80" height="90" rx="6" fill="rgba(229,185,72,0.08)" stroke="rgba(229,185,72,0.3)"/>
      <text x="40" y="48" font-size="9" fill="#E5B948" text-anchor="middle">1386 engraving</text>
      <text x="40" y="60" font-size="9" fill="#E5B948" text-anchor="middle">Duomo apse</text>
    </g>
    <text x="120" y="35" font-size="12" fill="#EDE6DA" font-family="Georgia, serif">
      <tspan x="120" dy="0">Archbishop Antonio</tspan>
      <tspan x="120" dy="16">da Saluzzo lays the</tspan>
      <tspan x="120" dy="16">first stone. Duke Gian</tspan>
      <tspan x="120" dy="16">Galeazzo Visconti adopts</tspan>
      <tspan x="120" dy="16">the cathedral as a state</tspan>
      <tspan x="120" dy="16">enterprise.</tspan>
    </text>
  </g>

  <g transform="translate(42,370)">
    <rect width="296" height="32" rx="16" fill="rgba(229,185,72,0.12)" stroke="rgba(229,185,72,0.4)"/>
    <text x="148" y="21" font-size="11" fill="#E5B948" text-anchor="middle">✦ Ask Luca more about Antonio →</text>
  </g>

  <g transform="translate(42,420)">
    <text font-size="11" fill="#8A847C" letter-spacing="1.5">NEXT</text>
    <rect y="14" width="296" height="60" rx="12" fill="#1F1B19" stroke="rgba(237,230,218,0.06)"/>
    <text x="20" y="38" font-size="13" fill="#EDE6DA">Tap-to-reveal · The Candoglia marble</text>
    <text x="20" y="56" font-size="11" fill="#8A847C">"AUF on the trucks for 600 years."</text>
  </g>

  <g transform="translate(22,540)">
    <rect width="110" height="44" rx="12" fill="#1F1B19" stroke="rgba(237,230,218,0.1)"/>
    <text x="55" y="28" font-size="13" fill="#EDE6DA" text-anchor="middle">←  Back</text>
  </g>

  <g transform="translate(248,540)">
    <rect width="110" height="44" rx="12" fill="#E5B948"/>
    <text x="55" y="28" font-size="13" font-weight="500" fill="#1A1614" text-anchor="middle">Next  →</text>
  </g>

  <g transform="translate(280,610)">
    <rect width="78" height="34" rx="17" fill="rgba(31,27,25,0.85)" stroke="rgba(229,185,72,0.45)"/>
    <circle cx="16" cy="17" r="6" fill="#E5B948"/>
    <text x="16" y="21" font-size="9" fill="#1A1614" text-anchor="middle">▶</text>
    <text x="46" y="21" font-size="11" fill="#EDE6DA">Luca</text>
  </g>

  <rect x="60" y="676" width="260" height="22" rx="11" fill="rgba(255,255,255,0.05)" stroke="rgba(237,230,218,0.08)"/>
  <text x="84" y="691" font-size="9" fill="#8A847C">Home</text>
  <text x="138" y="691" font-size="9" fill="#8A847C">AR</text>
  <text x="190" y="691" font-size="9" font-weight="500" fill="#E5B948">Guide</text>
  <text x="244" y="691" font-size="9" fill="#8A847C">Hunt</text>
</svg>
