<svg xmlns="http://www.w3.org/2000/svg" viewBox="0 0 380 720" font-family="-apple-system, system-ui, sans-serif">
  <rect width="380" height="720" rx="32" fill="#14110F"/>
  <defs>
    <linearGradient id="camFeed" x1="0" y1="0" x2="0" y2="1">
      <stop offset="0" stop-color="#6b5436"/>
      <stop offset="0.5" stop-color="#3a2c1c"/>
      <stop offset="1" stop-color="#1a140d"/>
    </linearGradient>
  </defs>
  <rect x="8" y="8" width="364" height="704" rx="26" fill="url(#camFeed)"/>

  <g fill="rgba(237,230,218,0.7)" transform="translate(80,200)">
    <path d="M0 320 L0 280 L8 270 L8 240 L20 220 L20 180 L30 170 L40 180 L40 220 L50 240 L50 280 L60 290 L60 320 Z"/>
    <path d="M65 320 L65 250 L75 230 L75 200 L85 190 L95 200 L95 230 L105 250 L105 320 Z"/>
    <rect x="115" y="200" width="120" height="120"/>
    <path d="M115 200 L175 100 L235 200 Z"/>
    <rect x="170" y="150" width="10" height="10"/>
    <path d="M168 150 L175 110 L182 150 Z"/>
    <path d="M240 320 L240 250 L250 230 L250 200 L260 190 L270 200 L270 230 L280 250 L280 320 Z"/>
  </g>

  <rect x="0" y="0" width="380" height="720" fill="rgba(229,185,72,0.05)"/>

  <text x="22" y="38" font-size="11" fill="rgba(237,230,218,0.85)">9:41</text>
  <g transform="translate(312,28)">
    <rect width="50" height="20" rx="10" fill="rgba(20,17,15,0.6)" stroke="rgba(237,230,218,0.25)"/>
    <text x="25" y="14" font-size="10" fill="#EDE6DA" text-anchor="middle">REC ●</text>
  </g>

  <g transform="translate(60,65)">
    <rect width="260" height="36" rx="18" fill="rgba(20,17,15,0.7)" stroke="rgba(237,230,218,0.2)"/>
    <rect x="4" y="4" width="80" height="28" rx="14" fill="#E5B948"/>
    <text x="44" y="22" font-size="11" font-weight="500" fill="#1A1614" text-anchor="middle">Birth</text>
    <text x="128" y="22" font-size="11" fill="rgba(237,230,218,0.7)" text-anchor="middle">Crown</text>
    <text x="216" y="22" font-size="11" fill="rgba(237,230,218,0.7)" text-anchor="middle">Modern</text>
  </g>

  <g transform="translate(22,118)">
    <rect width="170" height="32" rx="12" fill="rgba(20,17,15,0.7)" stroke="rgba(229,185,72,0.5)"/>
    <text x="10" y="20" font-size="10" fill="#E5B948" letter-spacing="1">● BIRTH · 1386 – 1500s</text>
  </g>

  <g transform="translate(150,210)" style="cursor: pointer">
    <circle r="16" fill="rgba(229,185,72,0.25)"/>
    <circle r="8" fill="#E5B948" stroke="#FAFAF7" stroke-width="2"/>
    <text x="22" y="-4" font-size="10" fill="#EDE6DA" letter-spacing="1">1386 · First stone</text>
  </g>

  <g transform="translate(290,275)">
    <circle r="14" fill="rgba(229,185,72,0.2)"/>
    <circle r="7" fill="#E5B948" stroke="#FAFAF7" stroke-width="2"/>
    <text x="-110" y="-4" font-size="10" fill="rgba(237,230,218,0.85)" letter-spacing="1">1402 · Plague refuge</text>
  </g>

  <g transform="translate(75,345)">
    <circle r="14" fill="rgba(229,185,72,0.2)"/>
    <circle r="7" fill="#E5B948" stroke="#FAFAF7" stroke-width="2"/>
    <text x="18" y="-4" font-size="10" fill="rgba(237,230,218,0.85)" letter-spacing="1">1492 · Leonardo in Milan</text>
  </g>

  <g transform="translate(220,420)">
    <circle r="14" fill="rgba(229,185,72,0.2)"/>
    <circle r="7" fill="#E5B948" stroke="#FAFAF7" stroke-width="2"/>
    <text x="-160" y="-4" font-size="10" fill="rgba(237,230,218,0.85)" letter-spacing="1">1450 · Fabbrica payrolls</text>
  </g>

  <text x="190" y="500" font-size="10" fill="rgba(237,230,218,0.5)" text-anchor="middle" letter-spacing="1">○ 4 of 4 moments visible</text>

  <g transform="translate(140,520)">
    <rect width="100" height="36" rx="18" fill="rgba(20,17,15,0.8)" stroke="rgba(229,185,72,0.4)"/>
    <text x="20" y="22" font-size="14" fill="#E5B948">↑</text>
    <text x="42" y="22" font-size="11" fill="#EDE6DA">Recenter</text>
  </g>

  <g transform="translate(22,580)">
    <rect width="336" height="56" rx="14" fill="rgba(20,17,15,0.8)" stroke="rgba(237,230,218,0.18)"/>
    <text x="20" y="22" font-size="10" fill="#E5B948" letter-spacing="1.5">✦ TIP</text>
    <text x="20" y="42" font-size="12" fill="#EDE6DA">Tap a gold dot to hear a moment of this period.</text>
  </g>

  <rect x="60" y="676" width="260" height="22" rx="11" fill="rgba(20,17,15,0.7)" stroke="rgba(237,230,218,0.15)"/>
  <text x="84" y="691" font-size="9" fill="rgba(237,230,218,0.6)">Home</text>
  <text x="138" y="691" font-size="9" font-weight="500" fill="#E5B948">AR</text>
  <text x="190" y="691" font-size="9" fill="rgba(237,230,218,0.6)">Guide</text>
  <text x="244" y="691" font-size="9" fill="rgba(237,230,218,0.6)">Hunt</text>
</svg>
