<svg xmlns="http://www.w3.org/2000/svg" viewBox="0 0 380 720" width="320" height="606" font-family="sans-serif">
<rect width="380" height="720" rx="32" fill="#14110F"/>
<rect x="8" y="8" width="364" height="704" rx="26" fill="#14110F" stroke="rgba(237,230,218,0.06)"/>
<text x="22" y="38" font-size="11" fill="#8A847C">9:41</text>
<g transform="translate(22,60)">
<rect width="44" height="3" rx="1.5" fill="#E5B948"/>
<rect x="50" width="44" height="3" rx="1.5" fill="#E5B948"/>
<rect x="100" width="44" height="3" rx="1.5" fill="#E5B948"/>
<rect x="150" width="44" height="3" rx="1.5" fill="#E5B948"/>
<rect x="200" width="44" height="3" rx="1.5" fill="#E5B948"/>
<rect x="250" width="44" height="3" rx="1.5" fill="rgba(229,185,72,0.7)"/>
<rect x="300" width="44" height="3" rx="1.5" fill="rgba(237,230,218,0.18)"/>
</g>
<text x="22" y="92" font-size="10" fill="#8A847C" letter-spacing="1.5">CHAPTER 1 · BIRTH · SCENE 1.7 · CULTURAL BEAT</text>
<text x="22" y="125" font-size="11" fill="#E5B948" letter-spacing="1.5">LIFE IN MILAN · 1450</text>
<text x="22" y="165" font-size="22" font-weight="500" fill="#EDE6DA" font-family="Georgia,serif">A day in 1450.</text>
<g transform="translate(22,190)">
<rect width="336" height="110" rx="14" fill="#25201D"/>
<text x="20" y="32" font-size="11" font-weight="500" fill="#E5B948">☀ MATINS BELL · 5 AM</text>
<text x="20" y="56" font-size="12" fill="#EDE6DA">Stonemason wakes. Polenta + onions.</text>
<text x="20" y="80" font-size="11" font-weight="500" fill="#E5B948" y="80">☀ NOON · MARKET BELL</text>
<text x="20" y="98" font-size="12" fill="#EDE6DA">Bread at Piazza dei Mercanti.</text>
</g>
<g transform="translate(22,318)">
<rect width="336" height="80" rx="14" fill="#25201D"/>
<text x="20" y="28" font-size="11" font-weight="500" fill="#E5B948">☾ VESPER BELL · 6 PM</text>
<text x="20" y="50" font-size="12" fill="#EDE6DA">Twelve hours under the rising apse.</text>
<text x="20" y="68" font-size="12" fill="#EDE6DA">Paid in soldi imperiali.</text>
</g>
<g transform="translate(22,415)">
<rect width="336" height="92" rx="14" fill="rgba(229,185,72,0.1)"/>
<rect width="3" height="92" fill="#E5B948"/>
<text x="20" y="32" font-size="11" font-weight="500" fill="#E5B948">PLAGUE WAS NEXT WINTER</text>
<text x="20" y="56" font-size="12" fill="#EDE6DA" font-family="Georgia,serif">
<tspan x="20" dy="0">The Black Death came every</tspan>
<tspan x="20" dy="16">few decades, like a season.</tspan>
</text>
</g>
<g transform="translate(140,535)">
<rect width="100" height="32" rx="16" fill="rgba(229,185,72,0.12)" stroke="rgba(229,185,72,0.4)"/>
<text x="50" y="20" font-size="11" fill="#E5B948" text-anchor="middle">✦ Ask Luca</text>
</g>
<g transform="translate(22,585)">
<rect width="110" height="44" rx="12" fill="#1F1B19" stroke="rgba(237,230,218,0.1)"/>
<text x="55" y="28" font-size="13" fill="#EDE6DA" text-anchor="middle">← Back</text>
</g>
<g transform="translate(248,585)">
<rect width="110" height="44" rx="12" fill="#E5B948"/>
<text x="55" y="28" font-size="13" font-weight="500" fill="#1A1614" text-anchor="middle">Next →</text>
</g>
<rect x="60" y="676" width="260" height="22" rx="11" fill="rgba(255,255,255,0.05)" stroke="rgba(237,230,218,0.08)"/>
<text x="190" y="691" font-size="9" fill="#8A847C" text-anchor="middle">Home · AR · Guide · Hunt</text>
</svg>
