<svg xmlns="http://www.w3.org/2000/svg" viewBox="0 0 380 720" width="320" height="606" font-family="sans-serif">
<rect width="380" height="720" rx="32" fill="#14110F"/>
<rect x="8" y="8" width="364" height="704" rx="26" fill="#14110F" stroke="rgba(237,230,218,0.06)"/>
<text x="22" y="38" font-size="11" fill="#8A847C">9:41</text>
<g transform="translate(22,60)">
<rect width="44" height="3" rx="1.5" fill="#E5B948"/>
<rect x="50" width="44" height="3" rx="1.5" fill="#E5B948"/>
<rect x="100" width="44" height="3" rx="1.5" fill="#E5B948"/>
<rect x="150" width="44" height="3" rx="1.5" fill="#E5B948"/>
<rect x="200" width="44" height="3" rx="1.5" fill="rgba(229,185,72,0.7)"/>
<rect x="250" width="44" height="3" rx="1.5" fill="rgba(237,230,218,0.18)"/>
<rect x="300" width="44" height="3" rx="1.5" fill="rgba(237,230,218,0.18)"/>
</g>
<text x="22" y="92" font-size="10" fill="#8A847C" letter-spacing="1.5">CHAPTER 2 · CROWN · SCENE 2.4</text>
<text x="22" y="130" font-size="11" fill="#E5B948" letter-spacing="1.5">30 DECEMBER 1774</text>
<text x="22" y="170" font-size="22" font-weight="500" fill="#EDE6DA" font-family="Georgia,serif">Milan's golden</text>
<text x="22" y="198" font-size="22" font-weight="500" fill="#EDE6DA" font-family="Georgia,serif">guardian rises.</text>
<g transform="translate(22,225)">
<rect width="336" height="170" rx="14" fill="#25201D"/>
<g transform="translate(20,15)">
<rect width="100" height="140" rx="6" fill="rgba(229,185,72,0.08)" stroke="rgba(229,185,72,0.3)"/>
<text x="50" y="44" font-size="9" fill="#E5B948" text-anchor="middle">1774 engraving</text>
<text x="50" y="58" font-size="9" fill="#E5B948" text-anchor="middle">"La Madonnina</text>
<text x="50" y="72" font-size="9" fill="#E5B948" text-anchor="middle">è alzata"</text>
<g transform="translate(50,100)" opacity="0.7">
<rect x="-2" y="0" width="4" height="20" fill="#E5B948"/>
<ellipse cx="0" cy="-2" rx="6" ry="3" fill="none" stroke="#E5B948"/>
</g>
</g>
<text x="140" y="36" font-size="12" fill="#EDE6DA" font-family="Georgia,serif">
<tspan x="140" dy="0">A 4.16 m gilded copper</tspan>
<tspan x="140" dy="16">statue of the Virgin Mary,</tspan>
<tspan x="140" dy="16">placed atop the central</tspan>
<tspan x="140" dy="16">spire at 108.5 m above</tspan>
<tspan x="140" dy="16">the ground.</tspan>
<tspan x="140" dy="22" fill="#E5B948" font-style="italic">No Milanese building</tspan>
<tspan x="140" dy="16" fill="#E5B948" font-style="italic">may rise above her.</tspan>
</text>
</g>
<g transform="translate(140,420)">
<rect width="100" height="32" rx="16" fill="rgba(229,185,72,0.12)" stroke="rgba(229,185,72,0.4)"/>
<text x="50" y="20" font-size="11" fill="#E5B948" text-anchor="middle">✦ Ask Luca</text>
</g>
<g transform="translate(22,470)">
<rect width="336" height="62" rx="12" fill="#1F1B19" stroke="rgba(237,230,218,0.06)"/>
<text x="20" y="26" font-size="10" fill="#8A847C" letter-spacing="1">NEXT · 2.5</text>
<text x="20" y="48" font-size="12" fill="#EDE6DA">Before/after: the façade · Napoleon completes 1813</text>
</g>
<g transform="translate(22,560)">
<rect width="110" height="44" rx="12" fill="#1F1B19" stroke="rgba(237,230,218,0.1)"/>
<text x="55" y="28" font-size="13" fill="#EDE6DA" text-anchor="middle">← Back</text>
</g>
<g transform="translate(248,560)">
<rect width="110" height="44" rx="12" fill="#E5B948"/>
<text x="55" y="28" font-size="13" font-weight="500" fill="#1A1614" text-anchor="middle">Next →</text>
</g>
<g transform="translate(280,620)">
<rect width="78" height="34" rx="17" fill="rgba(31,27,25,0.85)" stroke="rgba(229,185,72,0.45)"/>
<circle cx="16" cy="17" r="6" fill="#E5B948"/>
<text x="16" y="21" font-size="9" fill="#1A1614" text-anchor="middle">▶</text>
<text x="46" y="21" font-size="11" fill="#EDE6DA">Luca</text>
</g>
<rect x="60" y="676" width="260" height="22" rx="11" fill="rgba(255,255,255,0.05)" stroke="rgba(237,230,218,0.08)"/>
<text x="190" y="691" font-size="9" fill="#8A847C" text-anchor="middle">Home · AR · Guide · Hunt</text>
</svg>
