<svg xmlns="http://www.w3.org/2000/svg" viewBox="0 0 380 720" font-family="sans-serif">
<rect width="380" height="720" rx="32" fill="#14110F"/>
<rect x="8" y="8" width="364" height="704" rx="26" fill="#14110F" stroke="rgba(237,230,218,0.06)"/>
<text x="22" y="38" font-size="11" fill="#8A847C">9:41</text>
<g transform="translate(22,60)">
<rect width="44" height="3" rx="1.5" fill="#E5B948"/>
<rect x="50" width="44" height="3" rx="1.5" fill="#E5B948"/>
<rect x="100" width="44" height="3" rx="1.5" fill="#E5B948"/>
<rect x="150" width="44" height="3" rx="1.5" fill="#E5B948"/>
<rect x="200" width="44" height="3" rx="1.5" fill="#E5B948"/>
<rect x="250" width="44" height="3" rx="1.5" fill="rgba(229,185,72,0.7)"/>
<rect x="300" width="44" height="3" rx="1.5" fill="rgba(237,230,218,0.18)"/>
</g>
<text x="22" y="92" font-size="10" fill="#8A847C" letter-spacing="1.5">CHAPTER 3 · MODERN · SCENE 3.5 · BEFORE/AFTER</text>
<text x="22" y="125" font-size="11" fill="#E5B948" letter-spacing="1.5">DRAG TO COMPARE</text>
<text x="22" y="165" font-size="22" font-weight="500" fill="#EDE6DA" font-family="Georgia,serif">Sala delle Cariatidi.</text>
<g transform="translate(22,195)">
<rect width="336" height="290" rx="14" fill="#0a0807"/>
<rect width="168" height="290" rx="14" fill="rgba(237,230,218,0.18)"/>
<g transform="translate(40,90)" opacity="0.85">
<rect x="0" y="0" width="20" height="120" fill="rgba(237,230,218,0.8)"/>
<rect x="36" y="0" width="20" height="120" fill="rgba(237,230,218,0.8)"/>
<rect x="72" y="0" width="20" height="120" fill="rgba(237,230,218,0.8)"/>
</g>
<g transform="translate(220,90)">
<rect x="0" y="0" width="20" height="120" fill="rgba(140,120,100,0.7)"/>
<rect x="36" y="0" width="20" height="120" fill="rgba(140,120,100,0.7)"/>
<rect x="72" y="0" width="20" height="120" fill="rgba(140,120,100,0.7)"/>
</g>
<rect x="0" y="0" width="3" height="290" rx="0" fill="#E5B948" transform="translate(166,0)"/>
<g transform="translate(168,145)">
<circle r="16" fill="rgba(229,185,72,0.3)" stroke="#E5B948" stroke-width="2"/>
<path d="M-6 -2 L-10 0 L-6 2 Z" fill="#E5B948"/>
<path d="M6 -2 L10 0 L6 2 Z" fill="#E5B948"/>
</g>
<text x="14" y="280" font-size="11" font-weight="500" fill="#EDE6DA">1900 · intact</text>
<text x="180" y="280" font-size="11" font-weight="500" fill="#E5B948">Today · scarred</text>
</g>
<g transform="translate(22,505)">
<rect width="336" height="60" rx="12" fill="rgba(229,185,72,0.1)"/>
<rect width="3" height="60" fill="#E5B948"/>
<text x="20" y="26" font-size="11" font-weight="500" fill="#E5B948">15 AUGUST 1943</text>
<text x="20" y="48" font-size="12" fill="#EDE6DA" font-family="Georgia,serif">The hall was never fully restored.</text>
</g>
<g transform="translate(22,580)">
<rect width="110" height="44" rx="12" fill="#1F1B19" stroke="rgba(237,230,218,0.1)"/>
<text x="55" y="28" font-size="13" fill="#EDE6DA" text-anchor="middle">← Back</text>
</g>
<g transform="translate(248,580)">
<rect width="110" height="44" rx="12" fill="#E5B948"/>
<text x="55" y="28" font-size="13" font-weight="500" fill="#1A1614" text-anchor="middle">Next →</text>
</g>
<text x="190" y="650" font-size="10" fill="#8A847C" text-anchor="middle">Photos: Brogi (1900, PD) · Civici Musei (today, CC-BY)</text>
<rect x="60" y="676" width="260" height="22" rx="11" fill="rgba(255,255,255,0.05)" stroke="rgba(237,230,218,0.08)"/>
<text x="190" y="691" font-size="9" fill="#8A847C" text-anchor="middle">Home · AR · Guide · Hunt</text>
</svg>
